<?xml version="1.0" encoding="utf-8"?>
<svg version="1.1" xmlns="http://www.w3.org/2000/svg" xmlns:xlink="http://www.w3.org/1999/xlink" x="0px" y="0px"
	 viewBox="0 0 58 58" xml:space="preserve">
<style type="text/css">
	.st0{fill:#FF4A9B;}
</style>
<path id="color_x5F_2_10_" class="st0" d="M55.9,24.4c-0.5,2.9-4-1.4-4.6,0.3c-0.7,1.8,0.4,4.2-0.7,6.4c-0.4-1-0.9-2-1.5-2.9
	c-2.6-4.2-6.3-7.4-10.8-9.3c-2.9-1.3-6.1-1.9-9.3-1.9c-2.4,0-4.8,0.4-7.1,1.1c0,0,0,0,0-0.1c0.1-0.2,0.2-0.4,0.3-0.6c0,0,0,0,0,0
	c1.8-2.9,4.3-5.5,7.2-7.3c1.5-1,3.2-1.7,4.9-2.3c0,0,0,0,0,0c0.1,0,0.1,0,0.2-0.1c0.1,0,0.2-0.1,0.3-0.1c5.3-1.6,9.8-2,11.2,0
	C46.8,8.8,46,9.8,44.1,9c-1.7-0.7-3.1,0.5-2.6,1.3c0.5,0.7,2.1,0.7,3.1,0.7c0.7,0,1.4,0.1,2.2,0.7c1.2,1.1-1.5,1.7-0.6,2.9
	c0.9,1.2,7.1-3.6,9.4,0.5c2.3,4.1-6.5,0-6.4,2.9c0.1,3,2.6,4.5,4,3.5C54.7,20.5,56.4,21.5,55.9,24.4z M54.3,9.2
	C55,7.7,49.7,5.9,49,7.6C48.2,9.8,53.5,10.7,54.3,9.2z"/>
<path id="color_x5F_1_17_" class="st0" d="M49.9,34.7c1.5,5.1,0,7.8-1,7.4c-1-0.4-0.2-1.7-0.2-2.2c0-0.6-1-0.8-1.2,0.6
	c-0.2,1.4,0.2,3.4,0.5,4c0.3,0.6,0.5,2.2-1.4,2.3C44.8,47,47,43.5,46.4,43s-2.7,1.6-2.7,3.8c-0.1,2.2-0.9,3.2-1.9,2.7
	c-1-0.5,0.1-1.7,0.1-2.2c0-0.5-4.9,0.8-6.1,4.9c-1.2,4.1-4.8,7.7-7.2,4.5c-2.4-3.2,3.9-4,3.2-5.4c-0.7-1.3-3.8-0.1-5.2-1
	c1-0.4,2-0.9,2.9-1.5c4.2-2.6,7.4-6.3,9.3-10.8c1.3-2.9,1.9-6.1,1.9-9.3c0-2.4-0.4-4.8-1.1-7.1c3.2,1.8,5.9,4.4,7.9,7.6
	C48.6,31,49.4,32.8,49.9,34.7z M36.1,39.4c-2.3,0.7-4.7,1.1-7.1,1.1c-3.2,0-6.4-0.6-9.3-1.9c-0.4-0.2-0.7-0.3-1.1-0.5c0,0,0,0,0,0
	c-0.1,0-0.1-0.1-0.2-0.1c0,0,0,0,0,0c-3.9-2-7.1-4.9-9.5-8.7c-0.5-0.8-0.9-1.6-1.3-2.5c-0.1-0.1-0.1-0.3-0.2-0.4
	c-2.3,4.1,1.5,8.4,0.5,9.2c-0.6,0.5-1.5-2.8-3.4-2.2c-1.8,0.6-0.8,2.4,2.4,4.2c3.3,1.8,5.7,5.5,5.6,6.3c-0.1,0.8-2.8-1.4-2.2,0.6
	c0.6,1.9,5.4,1.9,7,3.3c1.6,1.4-1.9,2.9-4.4,0.6c-2.5-2.3-6.8-1.4-5,1.3c1.8,2.6,5.9,2.6,15.2,0c1.9-0.5,3.8-1.4,5.4-2.4
	C31.7,45.3,34.3,42.6,36.1,39.4z M10.5,28.3c2,3.2,4.7,5.8,7.9,7.6c-0.7-2.3-1.1-4.7-1.1-7.1c0-3.2,0.6-6.4,1.9-9.3
	c1.9-4.5,5.2-8.2,9.3-10.8c0.9-0.6,1.9-1.1,2.9-1.5c-2-0.9-5.7-0.7-4.6-2.1C28,3.7,27.1,2.4,26.2,3c-0.9,0.6-0.6,1.4-2,3.3
	c-1.4,2-6.9,3.3-7.2,0.7C16.7,4.6,18.9,0,17.3,0c-1.6,0-2.7,1.6-2.1,6.2c0.6,4.5-1.5,6.9-2,6.5c-0.5-0.4,0.4-2-0.8-2
	s-1.2,1.8-0.7,3.4c0.5,1.6-1.5,3.6-2.2,2.3C8.6,15,11.1,9.3,8.1,9.8c-3,0.5-1.7,6.5,0,13.1C8.7,24.8,9.5,26.6,10.5,28.3z M45,51.4
	c0.8,1.5,2.5-1.3,2-2.6C46.6,47.6,44.3,49.8,45,51.4z M5.6,25.3c0.6-2.4-0.1-4.5-2.6-3.6c-2.5,0.8,0.3,3,1,3.6
	C4.7,25.9,5.4,25.8,5.6,25.3z"/>
</svg>
