<svg xmlns="http://www.w3.org/2000/svg" viewBox="0 0 336 336"><path d="M14.18,284.19Q5.9,276.57,0,264.07v32.09A39.84,39.84,0,0,0,39.84,336H86.28Q76,327.6,54.8,313.69,24.14,293.37,14.18,284.19Z" style="fill:#ff499b"/><path d="M297.06,117.29q4.4-5.57,4.39-23.15v-26q0-16.22-5.07-21.1t-21.1-4.88v80.47c2.35.13,4.36.19,6.06.19Q292.66,122.85,297.06,117.29Z" style="fill:#ff499b"/><path d="M297.35,177H275.28V304.3H193.06V0H39.84A39.84,39.84,0,0,0,0,39.84V165.06c.14-.26.27-.54.41-.79q9.27-16.8,30-26.27t50-9.47q32,0,54.59,10.35T164.86,165q7.32,15.72,7.32,53.41v12.5H95.82V207.44q0-16.41-2.93-20.9T83.12,182a12.44,12.44,0,0,0-11.23,6.07q-3.81,6.06-3.81,18.37,0,15.83,4.28,23.84,4.1,8,23.24,19.33,54.9,32.6,69.16,53.49Q173,315.26,176.49,336H296.16A39.84,39.84,0,0,0,336,296.16V171.5Q320.43,176.95,297.35,177Z" style="fill:#ff499b"/></svg>